<?xml version="1.0" encoding="utf-8"?>
<!-- Generator: Adobe Illustrator 15.1.0, SVG Export Plug-In . SVG Version: 6.00 Build 0)  -->
<!DOCTYPE svg PUBLIC "-//W3C//DTD SVG 1.1//EN" "http://www.w3.org/Graphics/SVG/1.1/DTD/svg11.dtd">
<svg version="1.1" id="Layer_1" xmlns="http://www.w3.org/2000/svg" xmlns:xlink="http://www.w3.org/1999/xlink" x="0px" y="0px"
	 width="301.617px" height="193.617px" viewBox="0 0 301.617 193.617" enable-background="new 0 0 301.617 193.617"
	 xml:space="preserve">
<path fill="#FFFFFF" d="M272.687,169.617v-17.668h12.931c8.823,0,16-7.18,16-16V57.668c0-8.82-7.177-16-16-16h-12.931V24
	c0-13.234-10.767-24-24-24H24C10.765,0,0,10.766,0,24v145.617c0,13.234,10.766,24,24,24h224.688
	C261.921,193.617,272.687,182.852,272.687,169.617L272.687,169.617z M24,24h224.688v145.617L24,169.621V24z"/>
<rect x="40.688" y="44.07" fill="#FFFFFF" stroke="#FFFFFF" stroke-width="2" stroke-miterlimit="10" width="47.729" height="105.477"/>
<rect x="88.418" y="44.07" fill="#FFFFFF" stroke="#FFFFFF" stroke-width="2" stroke-miterlimit="10" width="47.729" height="105.477"/>
<rect x="136.148" y="44.07" fill="#FFFFFF" stroke="#FFFFFF" stroke-width="2" stroke-miterlimit="10" width="47.729" height="105.477"/>
<rect x="183.877" y="44.07" fill="#FFFFFF" stroke="#FFFFFF" stroke-width="2" stroke-miterlimit="10" width="47.729" height="105.477"/>
<path fill="none" d="M206.557,113.693l-58.041-12.909c-0.498-0.108-1.022,0.008-1.421,0.336c-0.426,0.334-0.651,0.823-0.651,1.338
	v22.997L65.74,74.393l61.573,12.957c0.507,0.108,1.022-0.018,1.431-0.345c0.38-0.316,0.625-0.814,0.625-1.329V62.769
	L206.557,113.693z"/>
<line fill="none" x1="40.688" y1="149.547" x2="231.605" y2="44.07"/>
<g>
	<path d="M93.533,112.992c-2.716,0-4.916,2.264-4.916,4.979c0,2.652,2.135,4.98,4.916,4.98s4.98-2.328,4.98-4.98
		C98.513,115.256,96.25,112.992,93.533,112.992z"/>
	<path d="M94.374,75.285c-8.731,0-12.741,5.174-12.741,8.667c0,2.522,2.134,3.687,3.88,3.687c3.493,0,2.07-4.98,8.667-4.98
		c3.234,0,5.821,1.424,5.821,4.398c0,3.493-3.622,5.498-5.756,7.309c-1.875,1.617-4.333,4.269-4.333,9.831
		c0,3.362,0.905,4.333,3.557,4.333c3.169,0,3.815-1.423,3.815-2.651c0-3.363,0.065-5.304,3.622-8.085
		c1.746-1.358,7.244-5.756,7.244-11.836C108.15,79.878,102.652,75.285,94.374,75.285z"/>
	<path d="M94.988,49.309c-26.252,0-47.5,21.244-47.5,47.5v43.789c0,2.05,1.661,3.711,3.711,3.711h43.789
		c26.251,0,47.5-21.244,47.5-47.5C142.488,70.557,121.243,49.309,94.988,49.309z M94.988,136.887H54.91V96.809
		c0-22.15,17.925-40.078,40.078-40.078c22.15,0,40.078,17.925,40.078,40.078C135.066,118.959,117.141,136.887,94.988,136.887z"/>
</g>
</svg>
