<?xml version="1.0" encoding="utf-8"?>
<!-- Generator: Adobe Illustrator 15.1.0, SVG Export Plug-In . SVG Version: 6.00 Build 0)  -->
<!DOCTYPE svg PUBLIC "-//W3C//DTD SVG 1.1//EN" "http://www.w3.org/Graphics/SVG/1.1/DTD/svg11.dtd">
<svg version="1.1" id="Capa_1" xmlns="http://www.w3.org/2000/svg" xmlns:xlink="http://www.w3.org/1999/xlink" x="0px" y="0px"
	 width="372.148px" height="515.458px" viewBox="0 0 372.148 515.458" enable-background="new 0 0 372.148 515.458"
	 xml:space="preserve">
<g>
	<path fill="#FFFFFF" d="M69.072,10c3.89,0,8.052,0.31,12.379,0.919c14.3,3.889,26.804,13.955,37.172,29.928
		c11.405,17.569,20,41.827,25.547,72.097c6.323,34.535,2.318,82.187-4.674,109.702c-1.649,4.969-2.79,8.734-3.628,11.5
		c-0.593,1.956-1.202,3.964-1.596,5.02c-0.215,0.122-0.47,0.262-0.746,0.411c-27.458,6.21-54.438,12.974-80.62,19.577
		c-10.032-10.273-21.427-35.933-30.484-69.085c-9.956-36.443-13.655-68.046-12.081-79.28l0.072-0.514l0.019-0.519
		c0.757-21.325,2.801-48.426,11.962-68.886C31.823,19.809,46.656,10,69.072,10 M303.077,130.012c22.412,0,37.243,9.809,46.674,30.87
		c9.164,20.464,11.208,47.561,11.966,68.882l0.018,0.519l0.072,0.514c1.574,11.234-2.124,42.838-12.078,79.282
		c-9.056,33.151-20.449,58.811-30.48,69.085c-26.313-6.634-53.408-13.426-80.617-19.578c-0.277-0.149-0.536-0.291-0.754-0.414
		c-0.395-1.057-1.005-3.071-1.599-5.032c-0.838-2.763-1.977-6.524-3.623-11.485c-6.998-27.505-11.005-75.153-4.677-109.698
		c5.552-30.27,14.148-54.526,25.553-72.094c10.367-15.971,22.87-26.038,37.167-29.93
		C295.025,130.322,299.187,130.012,303.077,130.012 M140.846,278.648c10.642,17.081,17.14,33.609,19.337,49.217
		c2.03,14.42,0.203,27.511-5.286,37.858c-6.552,12.353-17.931,19.728-30.438,19.728c-12.358,0-24.504-7.069-34.2-19.905
		c-11.433-15.136-19.035-37.572-22.153-65.227c10.854-3.271,20.649-6.094,30.182-8.84
		C113.407,287.123,126.769,283.272,140.846,278.648 M231.3,398.654c14.072,4.622,27.433,8.472,42.548,12.828
		c9.536,2.747,19.335,5.571,30.192,8.843c-3.118,27.654-10.721,50.092-22.154,65.228c-9.697,12.837-21.844,19.906-34.202,19.906
		c-12.507,0-23.886-7.375-30.438-19.727c-5.488-10.348-7.316-23.439-5.285-37.859C214.158,432.264,220.656,415.736,231.3,398.654
		 M69.073,0C10.073,0,2.135,61.618,0.439,109.399C-3.593,138.167,20.733,249.201,50.35,270.11
		c29.147-7.354,57.771-14.558,86.696-21.078c7.462-3.963,5.098-2.68,12.052-23.569c7.605-29.646,11.358-79.095,4.909-114.32
		C142.265,47.067,117.277,9.924,83.455,1.105C78.353,0.357,73.564,0,69.073,0L69.073,0z M303.077,120.012
		c-4.495,0-9.276,0.357-14.384,1.105c-33.815,8.825-58.8,45.962-70.551,110.035c-6.454,35.229-2.701,84.679,4.912,114.32
		c6.949,20.889,4.587,19.604,12.058,23.571c28.916,6.515,57.542,13.726,86.693,21.078c29.613-20.912,53.937-131.939,49.904-160.712
		C370.013,181.634,362.065,120.012,303.077,120.012L303.077,120.012z M145.006,266.706c-27.807,9.522-52.356,15.586-87.632,26.426
		c5.756,72.752,38.297,102.319,67.085,102.319C163.429,395.451,195.525,341.275,145.006,266.706L145.006,266.706z M227.14,386.711
		c-50.521,74.572-18.427,128.747,20.544,128.747c28.789,0,61.331-29.568,67.089-102.32
		C279.495,402.297,254.945,396.232,227.14,386.711L227.14,386.711z"/>
</g>
</svg>
